<svg width="193" height="41" viewBox="0 0 193 41" fill="none" xmlns="http://www.w3.org/2000/svg">
<path d="M0.556641 40V3.63636H26.764V11.5909H10.4288V17.8409H25.4146V25.7955H10.4288V32.0455H26.693V40H0.556641ZM29.8022 40V12.7273H39.6033V40H29.8022ZM34.7028 9.88636C33.377 9.88636 32.2406 9.44839 31.2937 8.57244C30.3467 7.6965 29.8732 6.64299 29.8732 5.41193C29.8732 4.18087 30.3467 3.12737 31.2937 2.25142C32.2406 1.37547 33.377 0.9375 34.7028 0.9375C36.0404 0.9375 37.1767 1.37547 38.1119 2.25142C39.0588 3.12737 39.5323 4.18087 39.5323 5.41193C39.5323 6.64299 39.0588 7.6965 38.1119 8.57244C37.1767 9.44839 36.0404 9.88636 34.7028 9.88636ZM67.5261 21.6051H58.5062C58.4589 21.0488 58.2636 20.5694 57.9203 20.1669C57.577 19.7644 57.1331 19.4567 56.5886 19.2436C56.0559 19.0187 55.4641 18.9062 54.813 18.9062C53.9726 18.9062 53.2505 19.0601 52.6468 19.3679C52.0431 19.6757 51.7472 20.1136 51.7591 20.6818C51.7472 21.0843 51.9189 21.4571 52.274 21.8004C52.6409 22.1437 53.3452 22.41 54.3869 22.5994L59.9267 23.5938C62.7202 24.1027 64.7976 24.9609 66.1589 26.1683C67.532 27.3639 68.2245 28.9678 68.2363 30.9801C68.2245 32.9214 67.6445 34.6082 66.4963 36.0405C65.3599 37.4609 63.8033 38.5618 61.8265 39.343C59.8616 40.1125 57.6184 40.4972 55.0971 40.4972C50.9305 40.4972 47.6693 39.6449 45.3137 37.9403C42.97 36.2358 41.662 33.9867 41.3897 31.1932H51.1199C51.2501 32.0573 51.6762 32.7261 52.3983 33.1996C53.1322 33.6612 54.0555 33.892 55.1681 33.892C56.0678 33.892 56.8076 33.7382 57.3876 33.4304C57.9795 33.1226 58.2813 32.6847 58.2931 32.1165C58.2813 31.5956 58.0209 31.1813 57.5119 30.8736C57.0147 30.5658 56.2335 30.3172 55.1681 30.1278L50.3386 29.2756C47.5569 28.7902 45.4735 27.867 44.0886 26.5057C42.7037 25.1444 42.0171 23.3925 42.0289 21.25C42.0171 19.3561 42.5143 17.7521 43.5204 16.4382C44.5384 15.1125 45.9885 14.1063 47.8706 13.4197C49.7645 12.7214 52.0076 12.3722 54.6 12.3722C58.5417 12.3722 61.649 13.1889 63.9217 14.8224C66.2063 16.456 67.4077 18.7169 67.5261 21.6051ZM86.3269 12.7273V19.8295H68.074V12.7273H86.3269ZM71.5542 40V11.946C71.5542 9.69697 71.9566 7.83262 72.7615 6.35298C73.5665 4.87334 74.7028 3.76657 76.1706 3.03267C77.6384 2.29877 79.3667 1.93182 81.3553 1.93182C82.5982 1.93182 83.8056 2.02651 84.9775 2.21591C86.1612 2.4053 87.0371 2.57102 87.6053 2.71307L86.1848 9.74432C85.8297 9.63778 85.4154 9.55492 84.9419 9.49574C84.4685 9.42471 84.0542 9.3892 83.699 9.3892C82.7757 9.3892 82.1543 9.58452 81.8347 9.97514C81.5151 10.3658 81.3553 10.8807 81.3553 11.5199V40H71.5542ZM100.418 40.4972C97.4587 40.4972 94.9255 39.9112 92.8185 38.7393C90.7115 37.5556 89.0958 35.9103 87.9712 33.8033C86.8467 31.6844 86.2844 29.2282 86.2844 26.4347C86.2844 23.6411 86.8467 21.1908 87.9712 19.0838C89.0958 16.965 90.7115 15.3196 92.8185 14.1477C94.9255 12.964 97.4587 12.3722 100.418 12.3722C103.377 12.3722 105.91 12.964 108.017 14.1477C110.124 15.3196 111.74 16.965 112.865 19.0838C113.989 21.1908 114.551 23.6411 114.551 26.4347C114.551 29.2282 113.989 31.6844 112.865 33.8033C111.74 35.9103 110.124 37.5556 108.017 38.7393C105.91 39.9112 103.377 40.4972 100.418 40.4972ZM100.489 33.2528C101.318 33.2528 102.034 32.9747 102.637 32.4183C103.241 31.862 103.709 31.0689 104.04 30.0391C104.372 29.0092 104.537 27.7841 104.537 26.3636C104.537 24.9313 104.372 23.7062 104.04 22.6882C103.709 21.6584 103.241 20.8653 102.637 20.3089C102.034 19.7526 101.318 19.4744 100.489 19.4744C99.613 19.4744 98.8614 19.7526 98.234 20.3089C97.6067 20.8653 97.1272 21.6584 96.7958 22.6882C96.4644 23.7062 96.2987 24.9313 96.2987 26.3636C96.2987 27.7841 96.4644 29.0092 96.7958 30.0391C97.1272 31.0689 97.6067 31.862 98.234 32.4183C98.8614 32.9747 99.613 33.2528 100.489 33.2528ZM116.529 40V12.7273H126.046V17.9119H126.33C126.827 15.9943 127.614 14.5916 128.691 13.7038C129.78 12.8161 131.053 12.3722 132.509 12.3722C132.935 12.3722 133.355 12.4077 133.77 12.4787C134.196 12.5379 134.604 12.6267 134.995 12.745V21.108C134.509 20.9422 133.912 20.8179 133.201 20.7351C132.491 20.6522 131.882 20.6108 131.373 20.6108C130.414 20.6108 129.55 20.8298 128.78 21.2678C128.023 21.6939 127.425 22.2976 126.987 23.0788C126.549 23.8482 126.33 24.7538 126.33 25.7955V40H116.529ZM150.527 40.4972C147.615 40.4972 145.105 39.9408 142.998 38.8281C140.903 37.7036 139.287 36.0937 138.151 33.9986C137.026 31.8916 136.464 29.3703 136.464 26.4347C136.464 23.6174 137.032 21.1553 138.169 19.0483C139.305 16.9413 140.909 15.3018 142.98 14.13C145.052 12.9581 147.496 12.3722 150.314 12.3722C152.373 12.3722 154.238 12.6918 155.907 13.331C157.576 13.9702 159.002 14.8994 160.186 16.1186C161.369 17.326 162.281 18.7938 162.92 20.522C163.559 22.2502 163.879 24.1974 163.879 26.3636V28.6364H139.518V23.2386H154.859C154.847 22.4574 154.646 21.7708 154.255 21.179C153.877 20.5753 153.362 20.1077 152.711 19.7763C152.071 19.433 151.343 19.2614 150.527 19.2614C149.734 19.2614 149.006 19.433 148.343 19.7763C147.68 20.1077 147.147 20.5694 146.745 21.1612C146.354 21.7531 146.147 22.4455 146.123 23.2386V29.0625C146.123 29.9384 146.307 30.7197 146.674 31.4062C147.041 32.0928 147.567 32.6314 148.254 33.022C148.94 33.4126 149.769 33.608 150.74 33.608C151.414 33.608 152.03 33.5133 152.586 33.3239C153.154 33.1345 153.64 32.8622 154.042 32.5071C154.445 32.1402 154.741 31.7022 154.93 31.1932H163.879C163.571 33.0871 162.843 34.7325 161.695 36.1293C160.547 37.5142 159.026 38.5914 157.132 39.3608C155.25 40.1184 153.048 40.4972 150.527 40.4972ZM146.904 9.31818L150.314 1.36363H158.694L153.368 9.31818H146.904ZM191.807 21.6051H182.787C182.74 21.0488 182.545 20.5694 182.202 20.1669C181.858 19.7644 181.414 19.4567 180.87 19.2436C180.337 19.0187 179.745 18.9062 179.094 18.9062C178.254 18.9062 177.532 19.0601 176.928 19.3679C176.324 19.6757 176.028 20.1136 176.04 20.6818C176.028 21.0843 176.2 21.4571 176.555 21.8004C176.922 22.1437 177.626 22.41 178.668 22.5994L184.208 23.5938C187.001 24.1027 189.079 24.9609 190.44 26.1683C191.813 27.3639 192.506 28.9678 192.518 30.9801C192.506 32.9214 191.926 34.6082 190.778 36.0405C189.641 37.4609 188.085 38.5618 186.108 39.343C184.143 40.1125 181.9 40.4972 179.378 40.4972C175.212 40.4972 171.951 39.6449 169.595 37.9403C167.251 36.2358 165.943 33.9867 165.671 31.1932H175.401C175.531 32.0573 175.957 32.7261 176.68 33.1996C177.413 33.6612 178.337 33.892 179.449 33.892C180.349 33.892 181.089 33.7382 181.669 33.4304C182.261 33.1226 182.563 32.6847 182.574 32.1165C182.563 31.5956 182.302 31.1813 181.793 30.8736C181.296 30.5658 180.515 30.3172 179.449 30.1278L174.62 29.2756C171.838 28.7902 169.755 27.867 168.37 26.5057C166.985 25.1444 166.298 23.3925 166.31 21.25C166.298 19.3561 166.796 17.7521 167.802 16.4382C168.82 15.1125 170.27 14.1063 172.152 13.4197C174.046 12.7214 176.289 12.3722 178.881 12.3722C182.823 12.3722 185.93 13.1889 188.203 14.8224C190.488 16.456 191.689 18.7169 191.807 21.6051Z" fill="white"/>
</svg>
